<svg xmlns="http://www.w3.org/2000/svg" fill="none" viewBox="36 12.54 47 48.25">
<g filter="url(#filter0_d_21928_16548)">
<path d="M70 52.043H46C44.2051 52.043 42.75 50.5879 42.75 48.793V16.793C42.75 14.998 44.2051 13.543 46 13.543H62C62.1212 13.543 62.2375 13.5911 62.3232 13.6769L73.1161 24.4697C73.2018 24.5555 73.25 24.6717 73.25 24.793V48.793C73.25 50.5879 71.7949 52.043 70 52.043Z" fill="white" stroke="#D0D5DD" stroke-width="1.5"/>
<path d="M62 13.293V20.793C62 23.0021 63.7909 24.793 66 24.793H73.5" stroke="#D0D5DD" stroke-width="1.5"/>
<rect x="36" y="29.293" width="26" height="19" rx="2" fill="#4389E1"/>
<path d="M41.3864 35.0202L42.853 37.4989H42.9098L44.3835 35.0202H46.12L43.9006 38.6566L46.1697 42.293H44.4013L42.9098 39.8107H42.853L41.3615 42.293H39.6001L41.8764 38.6566L39.6428 35.0202H41.3864ZM47.093 42.293V35.0202H48.6307V41.0252H51.7486V42.293H47.093ZM56.7122 37.1119C56.6838 36.8254 56.5618 36.6029 56.3464 36.4442C56.131 36.2856 55.8386 36.2063 55.4693 36.2063C55.2183 36.2063 55.0065 36.2418 54.8336 36.3129C54.6608 36.3815 54.5282 36.4774 54.4359 36.6005C54.3459 36.7236 54.301 36.8633 54.301 37.0195C54.2962 37.1497 54.3234 37.2634 54.3826 37.3604C54.4442 37.4575 54.5282 37.5415 54.6348 37.6126C54.7413 37.6812 54.8644 37.7416 55.0041 37.7937C55.1438 37.8434 55.2929 37.886 55.4515 37.9215L56.1049 38.0778C56.4222 38.1488 56.7134 38.2435 56.9785 38.3619C57.2437 38.4802 57.4733 38.6258 57.6674 38.7987C57.8616 38.9715 58.0119 39.1751 58.1184 39.4094C58.2273 39.6438 58.283 39.9125 58.2853 40.2156C58.283 40.6606 58.1693 41.0465 57.9444 41.3732C57.7219 41.6976 57.3999 41.9497 56.9785 42.1296C56.5595 42.3072 56.054 42.396 55.4622 42.396C54.8751 42.396 54.3637 42.306 53.9281 42.1261C53.4949 41.9461 53.1563 41.6798 52.9125 41.3271C52.671 40.9719 52.5443 40.5328 52.5325 40.0096H54.0204C54.037 40.2534 54.1068 40.457 54.2299 40.6204C54.3554 40.7814 54.5223 40.9033 54.7306 40.9862C54.9413 41.0666 55.1793 41.1069 55.4444 41.1069C55.7048 41.1069 55.9309 41.069 56.1227 40.9933C56.3168 40.9175 56.4672 40.8121 56.5737 40.6772C56.6802 40.5423 56.7335 40.3872 56.7335 40.212C56.7335 40.0487 56.685 39.9113 56.5879 39.8001C56.4932 39.6888 56.3535 39.5941 56.1689 39.516C55.9866 39.4379 55.7628 39.3668 55.4977 39.3029L54.7058 39.104C54.0926 38.9549 53.6085 38.7217 53.2534 38.4045C52.8983 38.0872 52.7219 37.6599 52.7243 37.1225C52.7219 36.6822 52.8391 36.2975 53.0758 35.9684C53.3149 35.6393 53.6428 35.3825 54.0595 35.1978C54.4761 35.0131 54.9496 34.9208 55.4799 34.9208C56.0197 34.9208 56.4908 35.0131 56.8933 35.1978C57.2981 35.3825 57.613 35.6393 57.8379 35.9684C58.0628 36.2975 58.1788 36.6786 58.1859 37.1119H56.7122Z" fill="white"/>
</g>
<g clip-path="url(#clip0_21928_16548)">
<g filter="url(#filter1_d_21928_16548)">
<path fill-rule="evenodd" clip-rule="evenodd" d="M69.6727 45.6408C70.16 45.4554 71.1213 45.5689 71.3751 46.1333C71.5913 46.6144 71.777 47.4257 71.7872 47.2528C71.8116 46.8685 71.7628 46.0375 71.9263 45.6033C72.045 45.2867 72.2785 44.9889 72.6226 44.8837C72.9119 44.7941 73.252 44.7629 73.5525 44.8264C73.8702 44.8931 74.2042 45.1253 74.329 45.3461C74.6965 45.9948 74.7026 47.3236 74.7198 47.2528C74.7848 46.9695 74.7909 45.973 75.0071 45.6033C75.1502 45.3586 75.5116 45.1399 75.7045 45.1045C76.0029 45.0503 76.3704 45.0337 76.683 45.0961C76.9358 45.1472 77.2779 45.4544 77.3703 45.6033C77.5926 45.9615 77.7174 46.9737 77.755 47.3299C77.7712 47.4767 77.8301 46.9206 78.0524 46.5634C78.4646 45.898 79.9243 45.7689 79.9791 47.2288C80.0055 47.9099 79.9994 47.8786 79.9994 48.3368C79.9994 48.8742 79.9872 49.1991 79.9588 49.5886C79.9283 50.0041 79.841 50.9465 79.7142 51.4026C79.6269 51.716 79.3375 52.421 79.0513 52.8438C79.0513 52.8438 77.9611 54.1455 77.8423 54.7308C77.7235 55.3171 77.7631 55.3212 77.7388 55.7357C77.7154 56.1512 77.8616 56.6969 77.8616 56.6969C77.8616 56.6969 77.0485 56.8052 76.6089 56.7323C76.212 56.6677 75.7207 55.8575 75.5938 55.6097C75.4192 55.2681 75.0467 55.3337 74.9015 55.5857C74.6742 55.9846 74.1818 56.7 73.8357 56.7448C73.1566 56.8322 71.7496 56.776 70.6482 56.7656C70.6482 56.7656 70.836 55.7128 70.4178 55.3514C70.1082 55.0807 69.5753 54.535 69.2565 54.2476L68.412 53.2885C68.1247 52.9136 67.3948 52.3211 67.1502 51.2214C66.934 50.2467 66.9553 49.7687 67.1878 49.3782C67.4233 48.9814 67.8679 48.7648 68.0547 48.7274C68.2658 48.6836 68.7571 48.6867 68.9429 48.7919C69.1692 48.92 69.2606 48.9575 69.4382 49.1991C69.6717 49.5188 69.755 49.6739 69.6545 49.3251C69.5773 49.0523 69.3276 48.7055 69.2139 48.315C69.1033 47.939 68.8068 47.333 68.8282 46.7259C68.8363 46.4957 68.9327 45.923 69.6727 45.6408Z" fill="white"/>
<path fill-rule="evenodd" clip-rule="evenodd" d="M69.6727 45.6408C70.16 45.4554 71.1213 45.5689 71.3751 46.1333C71.5913 46.6144 71.777 47.4257 71.7872 47.2528C71.8116 46.8685 71.7628 46.0375 71.9263 45.6033C72.045 45.2867 72.2785 44.9889 72.6226 44.8837C72.9119 44.7941 73.252 44.7629 73.5525 44.8264C73.8702 44.8931 74.2042 45.1253 74.329 45.3461C74.6965 45.9948 74.7026 47.3236 74.7198 47.2528C74.7848 46.9695 74.7909 45.973 75.0071 45.6033C75.1502 45.3586 75.5116 45.1399 75.7045 45.1045C76.0029 45.0503 76.3704 45.0337 76.683 45.0961C76.9358 45.1472 77.2779 45.4544 77.3703 45.6033C77.5926 45.9615 77.7174 46.9737 77.755 47.3299C77.7712 47.4767 77.8301 46.9206 78.0524 46.5634C78.4646 45.898 79.9243 45.7689 79.9791 47.2288C80.0055 47.9099 79.9994 47.8786 79.9994 48.3368C79.9994 48.8742 79.9872 49.1991 79.9588 49.5886C79.9283 50.0041 79.841 50.9465 79.7142 51.4026C79.6269 51.716 79.3375 52.421 79.0513 52.8438C79.0513 52.8438 77.9611 54.1455 77.8423 54.7308C77.7235 55.3171 77.7631 55.3212 77.7388 55.7357C77.7154 56.1512 77.8616 56.6969 77.8616 56.6969C77.8616 56.6969 77.0485 56.8052 76.6089 56.7323C76.212 56.6677 75.7207 55.8575 75.5938 55.6097C75.4192 55.2681 75.0467 55.3337 74.9015 55.5857C74.6742 55.9846 74.1818 56.7 73.8357 56.7448C73.1566 56.8322 71.7496 56.776 70.6482 56.7656C70.6482 56.7656 70.836 55.7128 70.4178 55.3514C70.1082 55.0807 69.5753 54.535 69.2565 54.2476L68.412 53.2885C68.1247 52.9136 67.3948 52.3211 67.1502 51.2214C66.934 50.2467 66.9553 49.7687 67.1878 49.3782C67.4233 48.9814 67.8679 48.7648 68.0547 48.7274C68.2658 48.6836 68.7571 48.6867 68.9429 48.7919C69.1692 48.92 69.2606 48.9575 69.4382 49.1991C69.6717 49.5188 69.755 49.6739 69.6545 49.3251C69.5773 49.0523 69.3276 48.7055 69.2139 48.315C69.1033 47.939 68.8068 47.333 68.8282 46.7259C68.8363 46.4957 68.9327 45.923 69.6727 45.6408Z" stroke="#333333" stroke-width="0.75" stroke-linecap="round" stroke-linejoin="round"/>
</g>
<path fill-rule="evenodd" clip-rule="evenodd" d="M73 50.293C73 50.0168 72.7761 49.793 72.5 49.793C72.2239 49.793 72 50.0168 72 50.293V53.293C72 53.5691 72.2239 53.793 72.5 53.793C72.7761 53.793 73 53.5691 73 53.293V50.293ZM74.5 49.793C74.7761 49.793 75 50.0168 75 50.293V53.293C75 53.5691 74.7761 53.793 74.5 53.793C74.2239 53.793 74 53.5691 74 53.293V50.293C74 50.0168 74.2239 49.793 74.5 49.793ZM76.5 49.793C76.7761 49.793 77 50.0168 77 50.293V53.293C77 53.5691 76.7761 53.793 76.5 53.793C76.2239 53.793 76 53.5691 76 53.293V50.293C76 50.0168 76.2239 49.793 76.5 49.793Z" fill="#333333"/>
</g>
<defs>
<filter id="filter0_d_21928_16548" x="-1" y="0.792969" width="112" height="112" filterUnits="userSpaceOnUse" color-interpolation-filters="sRGB">
<feFlood flood-opacity="0" result="BackgroundImageFix"/>
<feColorMatrix in="SourceAlpha" type="matrix" values="0 0 0 0 0 0 0 0 0 0 0 0 0 0 0 0 0 0 127 0" result="hardAlpha"/>
<feMorphology radius="12" operator="erode" in="SourceAlpha" result="effect1_dropShadow_21928_16548"/>
<feOffset dy="24"/>
<feGaussianBlur stdDeviation="24"/>
<feComposite in2="hardAlpha" operator="out"/>
<feColorMatrix type="matrix" values="0 0 0 0 0.0625882 0 0 0 0 0.0926346 0 0 0 0 0.15702 0 0 0 0.18 0"/>
<feBlend mode="normal" in2="BackgroundImageFix" result="effect1_dropShadow_21928_16548"/>
<feBlend mode="normal" in="SourceGraphic" in2="effect1_dropShadow_21928_16548" result="shape"/>
</filter>
<filter id="filter1_d_21928_16548" x="64.625" y="43.418" width="17.75" height="16.75" filterUnits="userSpaceOnUse" color-interpolation-filters="sRGB">
<feFlood flood-opacity="0" result="BackgroundImageFix"/>
<feColorMatrix in="SourceAlpha" type="matrix" values="0 0 0 0 0 0 0 0 0 0 0 0 0 0 0 0 0 0 127 0" result="hardAlpha"/>
<feOffset dy="1"/>
<feGaussianBlur stdDeviation="1"/>
<feColorMatrix type="matrix" values="0 0 0 0 0.027451 0 0 0 0 0.12549 0 0 0 0 0.239216 0 0 0 0.24 0"/>
<feBlend mode="normal" in2="BackgroundImageFix" result="effect1_dropShadow_21928_16548"/>
<feBlend mode="normal" in="SourceGraphic" in2="effect1_dropShadow_21928_16548" result="shape"/>
</filter>
<clipPath id="clip0_21928_16548">
<rect width="20" height="20" fill="white" transform="translate(63 40.793)"/>
</clipPath>
</defs>
</svg>