<svg width="20" height="20" viewBox="0 0 20 20" fill="none" xmlns="http://www.w3.org/2000/svg">
<path d="M12.8417 15.0751C12.7385 15.0751 12.65 14.9866 12.65 14.8834C12.65 14.7802 12.7385 14.6917 12.8417 14.6917C15.4218 14.6917 17.525 12.5885 17.525 10.0084C17.525 7.42827 15.4218 5.32506 12.8417 5.32506C10.2616 5.32506 8.15834 7.42827 8.15834 10.0084C8.15834 10.1116 8.06989 10.2001 7.96667 10.2001C7.86346 10.2001 7.775 10.1116 7.775 10.0084C7.775 7.2131 10.0472 4.93339 12.85 4.93339C15.6528 4.93339 17.9167 7.20476 17.9167 10.0001C17.9167 12.7954 15.6445 15.0751 12.8417 15.0751Z" fill="#00091D" stroke="#DBDBDB" stroke-width="0.833333"/>
<path d="M7.15832 4.92497C7.26154 4.92497 7.34999 5.01342 7.34999 5.11663C7.34999 5.21985 7.26154 5.3083 7.15832 5.3083C4.5782 5.3083 2.47499 7.41152 2.47499 9.99163C2.47499 12.5718 4.5782 14.675 7.15832 14.675C9.73844 14.675 11.8417 12.5718 11.8417 9.99163C11.8417 9.88842 11.9301 9.79997 12.0333 9.79997C12.1365 9.79997 12.225 9.88842 12.225 9.99163C12.225 12.7869 9.95279 15.0666 7.14999 15.0666C4.34719 15.0666 2.08332 12.7953 2.08332 9.99997C2.08332 7.20467 4.35552 4.92497 7.15832 4.92497Z" fill="#00091D" stroke="#DBDBDB" stroke-width="0.833333"/>
</svg>
