<svg width="671" height="554" viewBox="0 0 671 554" fill="none" xmlns="http://www.w3.org/2000/svg">
<path d="M1 432.953L461.307 163.787L670.199 262.867V267.821L193.792 553.5L1 439.559V432.953Z" fill="#F1F1F1"/>
<path d="M1 432.953L193.792 548.133M1 432.953L461.307 163.787L670.199 262.867M1 432.953V439.559L193.792 553.5M193.792 548.133L670.199 262.867M193.792 548.133V553.5M670.199 262.867V267.821L193.792 553.5" stroke="#333333" stroke-opacity="0.3" stroke-width="0.825662" stroke-linecap="round"/>
<path d="M450.637 349.974L393.604 317.532V253.766V90.9952L536.745 8.21143L596.015 42.8911V202.865V266.631L561.348 286.505L557.434 283.411L541.778 292.92V297.724L450.637 349.974Z" fill="white"/>
<path d="M393.604 90.9952L536.745 8.21143L596.015 42.8911M393.604 90.9952L450.637 125.675M393.604 90.9952V253.766M450.637 349.974L393.604 317.532V253.766M450.637 349.974V285.09M450.637 349.974L541.778 297.724V292.92M596.015 42.8911L450.637 125.675M596.015 42.8911V202.865M450.637 125.675V285.09M393.604 253.766L450.637 285.09M450.637 285.09L596.015 202.865M561.348 286.505L596.015 266.631V202.865M561.348 286.505V232.511L541.778 243.698V292.92M561.348 286.505L557.434 283.411M557.434 283.411V234.972M557.434 283.411L541.778 292.92" stroke="#333333" stroke-width="0.825662"/>
<g style="mix-blend-mode:multiply">
<path d="M451.077 349.974L394.044 317.59V253.937L451.077 285.205L596.456 203.127V266.779L561.788 286.618L557.874 283.53L542.218 293.022V297.817L451.077 349.974Z" fill="#F1F1F1"/>
</g>
<path d="M536.813 12.1807L401.1 91.3464L405.789 94.1537M536.813 12.1807L541.433 14.988L587.636 43.0609L582.714 45.8682M536.813 12.1807V18.3567M405.789 94.1537L450.805 121.104L582.714 45.8682M405.789 94.1537L536.813 18.3567M536.813 18.3567L582.714 45.8682" stroke="#333333" stroke-width="0.825662"/>
<path d="M528.547 236.653V229.923L574.623 203.568L598.222 214.222V221.512L549.337 248.989L528.547 236.653Z" fill="white"/>
<path d="M528.547 229.923V236.653L549.337 248.989M528.547 229.923L574.623 203.568L598.222 214.222M528.547 229.923L549.337 242.26M549.337 248.989L598.222 221.512V214.222M549.337 248.989V242.26M598.222 214.222L549.337 242.26" stroke="#333333" stroke-width="0.825662"/>
<path d="M492.384 128.6V173.638L465.484 188.574V183.289V143.536L487.326 131.409L492.384 128.6Z" fill="#F1F1F1"/>
<path d="M492.384 173.638V128.6L487.326 131.409M492.384 173.638L465.484 188.574V183.289M492.384 173.638L487.326 171.111M487.326 171.111V131.409M487.326 171.111L465.484 183.289M487.326 131.409L465.484 143.536V183.289" stroke="#333333" stroke-opacity="0.5" stroke-width="0.825662"/>
<path d="M491.061 191.661V236.699L464.161 251.635V246.35V206.597L486.003 194.469L491.061 191.661Z" fill="white"/>
<path d="M491.061 236.699V191.661L486.003 194.469M491.061 236.699L464.161 251.635V246.35M491.061 236.699L486.003 234.171M486.003 234.171V194.469M486.003 234.171L464.161 246.35M486.003 194.469L464.161 206.597V246.35" stroke="#333333" stroke-opacity="0.5" stroke-width="0.825662"/>
<path opacity="0.5" d="M464.577 206.826L485.602 195.17V233.933L464.577 245.642L464.577 206.826Z" fill="#5EA3FB"/>
<path d="M524.576 109.638V153.682L498.117 168.289V163.12V124.245L519.601 112.385L524.576 109.638Z" fill="#F1F1F1"/>
<path d="M524.576 153.682V109.638L519.601 112.385M524.576 153.682L498.117 168.289V163.12M524.576 153.682L519.601 151.211M519.601 151.211V112.385M519.601 151.211L498.117 163.12M519.601 112.385L498.117 124.245V163.12" stroke="#333333" stroke-opacity="0.5" stroke-width="0.825662"/>
<path d="M523.253 172.699V216.743L496.794 231.35V226.181V187.305L518.278 175.445L523.253 172.699Z" fill="#F1F1F1"/>
<path d="M523.253 216.743V172.699L518.278 175.445M523.253 216.743L496.794 231.35V226.181M523.253 216.743L518.278 214.271M518.278 214.271V175.445M518.278 214.271L496.794 226.181M518.278 175.445L496.794 187.305V226.181" stroke="#333333" stroke-opacity="0.5" stroke-width="0.825662"/>
<path d="M557.209 91.1167V135.823L530.309 150.65V145.403V105.943L552.15 93.9045L557.209 91.1167Z" fill="white"/>
<path d="M557.209 135.823V91.1167L552.15 93.9045M557.209 135.823L530.309 150.65V145.403M557.209 135.823L552.15 133.314M552.15 133.314V93.9045M552.15 133.314L530.309 145.403M552.15 93.9045L530.309 105.943V145.403" stroke="#333333" stroke-opacity="0.5" stroke-width="0.825662"/>
<path d="M555.886 154.177V198.884L528.986 213.71V208.464V169.004L550.828 156.965L555.886 154.177Z" fill="#F1F1F1"/>
<path d="M555.886 198.884V154.177L550.828 156.965M555.886 198.884L528.986 213.71V208.464M555.886 198.884L550.828 196.375M550.828 196.375V156.965M550.828 196.375L528.986 208.464M550.828 156.965L528.986 169.004V208.464" stroke="#333333" stroke-opacity="0.5" stroke-width="0.825662"/>
<path d="M588.96 74.8V117.851L562.942 132.128V127.076V89.0771L584.068 77.4846L588.96 74.8Z" fill="#F1F1F1"/>
<path d="M588.96 117.851V74.8L584.068 77.4846M588.96 117.851L562.942 132.128V127.076M588.96 117.851L584.068 115.435M584.068 115.435V77.4846M584.068 115.435L562.942 127.076M584.068 77.4846L562.942 89.0771V127.076" stroke="#333333" stroke-opacity="0.5" stroke-width="0.825662"/>
<path d="M587.637 137.861V180.912L561.619 195.189V190.137V152.138L582.745 140.546L587.637 137.861Z" fill="#F1F1F1"/>
<path d="M587.637 180.912V137.861L582.745 140.546M587.637 180.912L561.619 195.189V190.137M587.637 180.912L582.745 178.496M582.745 178.496V140.546M582.745 178.496L561.619 190.137M582.745 140.546L561.619 152.138V190.137" stroke="#333333" stroke-opacity="0.5" stroke-width="0.825662"/>
<path d="M475.185 221.648L513.109 243.256" stroke="#333333" stroke-width="1.59474" stroke-linecap="round" stroke-dasharray="3.19 2.39"/>
<path d="M507.248 213.059C509.76 211.118 515.908 210.633 518.668 210.633C525.805 210.347 527.803 216.913 528.374 219.911C528.945 222.909 528.803 227.334 526.519 231.188C524.692 234.271 521.237 235.899 519.096 235.613L513.243 234.614C510.769 234.233 505.364 232.644 503.537 229.332C501.253 225.193 501.396 221.481 502.109 219.483C502.823 217.484 504.108 215.486 507.248 213.059Z" fill="#5FA4FB" stroke="#333333" stroke-width="0.825662"/>
<path d="M519.624 233.733C521.596 233.727 523.422 232.577 524.769 230.636C526.115 228.696 526.957 225.996 526.949 222.997C526.941 219.999 526.084 217.304 524.727 215.371C523.369 213.437 521.538 212.297 519.565 212.302C517.593 212.308 515.767 213.458 514.42 215.399C513.074 217.339 512.232 220.039 512.24 223.038C512.248 226.037 513.105 228.731 514.462 230.664C515.82 232.598 517.651 233.738 519.624 233.733Z" fill="#5FA4FB" stroke="#333333" stroke-width="0.825662"/>
<path d="M520.151 226.872C520.8 226.874 521.433 226.498 521.923 225.797C522.412 225.097 522.73 224.107 522.734 222.992C522.739 221.877 522.43 220.884 521.947 220.18C521.464 219.475 520.834 219.092 520.185 219.09C519.536 219.087 518.902 219.464 518.413 220.165C517.924 220.864 517.606 221.854 517.601 222.97C517.596 224.085 517.906 225.078 518.388 225.781C518.872 226.487 519.502 226.869 520.151 226.872Z" fill="#333333" stroke="#333333" stroke-width="0.825662"/>
<path d="M521.771 243.892L521.358 243.907L521.358 243.9V243.892C521.358 239.091 517.184 235.169 512.35 235.169C507.54 235.169 503.627 239.209 503.627 244.035V244.044L503.626 244.054L503.214 244.035L503.626 244.054L503.626 244.054L503.626 244.054L503.626 244.056L503.626 244.063L503.625 244.089L503.62 244.19L503.604 244.555C503.591 244.86 503.573 245.275 503.555 245.711C503.526 246.416 503.498 247.169 503.488 247.618C504.364 247.959 505.707 248.203 507.314 248.354C509.063 248.518 511.077 248.569 513.039 248.538C515 248.507 516.901 248.394 518.424 248.232C519.185 248.15 519.848 248.057 520.373 247.957C520.802 247.875 521.115 247.793 521.314 247.718C521.331 247.62 521.347 247.478 521.359 247.297C521.385 246.916 521.394 246.415 521.394 245.909C521.394 245.404 521.385 244.904 521.376 244.529C521.372 244.341 521.367 244.186 521.364 244.077L521.36 243.951L521.359 243.918L521.358 243.91L521.358 243.908L521.358 243.907L521.358 243.907L521.771 243.892Z" fill="#5FA4FB" stroke="#333333" stroke-width="0.825662"/>
<path d="M515.576 234.999L517.844 235.395C517.81 236.079 517.299 236.797 517.048 237.071C515.793 237.01 515.226 236.316 515.1 235.976L515.576 234.999Z" fill="#5FA4FB" stroke="#333333" stroke-width="0.825662"/>
<path d="M450.969 121.101L405.952 94.1513L536.976 18.3544L582.877 45.8659L450.969 121.101Z" fill="#F1F1F1" stroke="#333333" stroke-width="0.825662"/>
<g style="mix-blend-mode:multiply" filter="url(#filter0_f_8029_95404)">
<path d="M531.517 151.979V104.762L559.692 88.6344V136.434L531.517 151.979Z" fill="#5FA4FB" fill-opacity="0.7"/>
</g>
<g style="mix-blend-mode:multiply" filter="url(#filter1_f_8029_95404)">
<path d="M465.07 252.448V205.23L493.245 189.103V236.903L465.07 252.448Z" fill="#5FA4FB" fill-opacity="0.7"/>
</g>
<g style="mix-blend-mode:multiply" filter="url(#filter2_f_8029_95404)">
<path d="M360.148 381.106V333.889L388.323 317.762V365.562L360.148 381.106Z" fill="#5FA4FB" fill-opacity="0.7"/>
</g>
<path opacity="0.5" d="M530.711 106.173L551.736 94.5975V133.101L530.711 144.741L530.711 106.173Z" fill="#5EA3FB"/>
<path d="M544.421 121.985L622.475 164.761" stroke="#333333" stroke-width="1.59474" stroke-linecap="round" stroke-dasharray="3.19 2.39"/>
<path d="M644.107 152.875C645.108 152.785 647.782 153.152 650.464 155.344C653.147 157.535 657.426 161.311 659.23 162.925C660.151 163.627 661.513 164.941 662.206 166.35C662.321 166.574 662.418 166.809 662.49 167.055C662.716 167.786 662.718 168.519 662.347 169.186C661.132 171.368 656.637 177.396 654.541 180.137C653.621 181.359 650.447 183.289 645.115 181.234L639.893 179.415L638.971 179.094C638.605 178.957 637.833 178.307 637.018 176.763C636.992 176.725 636.968 176.679 636.946 176.625C636.648 176.042 636.346 175.339 636.057 174.498C635.345 172.423 634.193 169.733 633.5 167.018C633.282 166.936 632.845 166.666 632.366 166.239L632.396 171.659C632.458 175.435 631.524 176.473 631.049 176.52L625.843 176.8L623.679 176.262C622.573 175.874 622.155 173.986 622.084 173.09C622.007 167.977 621.881 157.343 621.99 155.716C622.099 154.088 622.867 153.574 623.237 153.52L628.057 153.843C628.153 153.805 628.245 153.817 628.323 153.861L630.534 154.873C631.823 155.337 632.169 157.445 632.181 158.442C633.215 157.476 634.333 157.337 634.923 157.446C636.748 155.018 639.899 152.407 644.107 152.875Z" fill="#5FA4FB"/>
<path d="M637.018 176.763C637.833 178.307 638.605 178.957 638.971 179.094L639.893 179.415M637.018 176.763C636.697 176.154 636.369 175.407 636.057 174.498C635.345 172.423 634.193 169.733 633.5 167.018M637.018 176.763C636.68 176.268 636.629 174.41 639.125 170.931C641.622 167.452 643.756 164.378 644.51 163.276C645.472 161.821 648.27 159.236 651.767 160.539C655.263 161.842 658.321 163.205 659.412 163.724C660.225 164.106 661.978 165.308 662.49 167.055M662.49 167.055C661.976 165.393 660.303 163.743 659.23 162.925C657.426 161.311 653.147 157.535 650.464 155.344C647.782 153.152 645.108 152.785 644.107 152.875C639.899 152.407 636.748 155.018 634.923 157.446M662.49 167.055C662.716 167.786 662.718 168.519 662.347 169.186C661.132 171.368 656.637 177.396 654.541 180.137C653.621 181.359 650.447 183.289 645.115 181.234L639.893 179.415M662.49 167.055C662.283 166.628 661.026 165.451 657.654 164.156C654.283 162.861 652.919 162.503 652.658 162.485C651.721 162.009 649.373 161.541 647.483 163.475C645.594 165.408 641.189 172.189 639.223 175.338C638.653 176.421 637.988 178.751 639.893 179.415M634.923 157.446C634.284 158.296 633.808 159.123 633.506 159.788C632.604 161.896 632.849 164.468 633.5 167.018M634.923 157.446C634.333 157.337 633.215 157.476 632.181 158.442M633.5 167.018C633.282 166.936 632.845 166.666 632.366 166.239M632.181 158.442C631.67 158.919 631.179 159.598 630.783 160.548C629.713 163.116 631.169 165.17 632.366 166.239M632.181 158.442C632.169 157.445 631.823 155.337 630.534 154.873L628.323 153.861M628.323 153.861L623.237 153.52C622.867 153.574 622.099 154.088 621.99 155.716C621.881 157.343 622.007 167.977 622.084 173.09C622.155 173.986 622.573 175.874 623.679 176.262L625.843 176.8L631.049 176.52M628.323 153.861C627.894 153.622 627.066 154.327 627.189 159.05C627.313 163.774 627.457 170.307 627.514 172.982C627.559 173.876 627.988 175.749 629.349 176.092L631.049 176.52M631.049 176.52C631.524 176.473 632.458 175.435 632.396 171.659L632.366 166.239" stroke="#333333" stroke-width="0.825662" stroke-linecap="round"/>
<path d="M647.91 169.284C649.349 168.078 650.96 167.386 652.388 167.224C653.82 167.061 655.014 167.433 655.724 168.279C656.433 169.126 656.59 170.367 656.179 171.748C655.769 173.126 654.805 174.591 653.367 175.796C651.928 177.001 650.317 177.694 648.889 177.856C647.457 178.018 646.263 177.647 645.554 176.8C644.844 175.953 644.688 174.712 645.098 173.331C645.508 171.954 646.472 170.489 647.91 169.284Z" fill="#5FA4FB" stroke="#333333" stroke-width="0.825662"/>
<ellipse cx="649.986" cy="172.192" rx="1.42073" ry="1.99556" transform="rotate(46.1075 649.986 172.192)" fill="#333333"/>
<path d="M403.743 50.5812L422.199 61.1895L308.376 431.405C304.08 432.693 300.428 431.619 299.354 430.975L284.534 420.665C281.742 418.732 281.67 411.93 281.742 409.496V134.779C282.257 121.033 295.989 109.291 302.791 105.138L395.581 51.87C399.533 49.6362 402.024 49.7221 403.743 50.5812Z" fill="white" stroke="#333333" stroke-width="0.825662" stroke-linecap="round"/>
<path d="M408.584 60.535L311.56 117.154C297.819 125.173 294.693 143.7 294.848 151.961C294.848 227.299 295.312 384.425 295.312 409.301C295.312 438.538 310.013 431.809 317.595 427.632C340.652 414.792 389.505 386.653 406.96 375.886C424.415 365.119 427.308 347.576 426.225 339.687C426.225 260.791 427.154 96.8271 427.154 76.7783C427.154 56.7295 414.774 57.5958 408.584 60.535Z" fill="white" stroke="#333333" stroke-width="0.825662" stroke-linecap="round"/>
<path d="M337.801 119.744C331.214 123.388 329.132 119.468 328.783 115.724C328.689 114.717 327.564 114.026 326.695 114.544L315.463 121.247C304.122 128.636 301.716 140.937 301.931 146.163V417.658C302.79 427.281 311.596 425.104 315.892 422.813L407.822 369.975C418.476 362.414 421.569 350.357 421.784 345.274V78.7189C421.784 73.3921 420.638 69.9125 420.065 68.8385C417.66 63.8554 411.474 65.7598 408.682 67.335L394.756 75.3219C394.34 75.56 394.103 76.0163 394.121 76.4946C394.431 84.7937 389.121 89.8638 386.343 91.3915L337.801 119.744Z" fill="white" stroke="#333333" stroke-width="0.825662" stroke-linecap="round"/>
<path d="M288.933 377.207C289.374 377.843 289.234 378.586 288.78 378.901C288.326 379.215 287.581 379.086 287.14 378.449C286.699 377.812 286.839 377.069 287.293 376.755C287.747 376.44 288.492 376.57 288.933 377.207Z" fill="white" stroke="#333333" stroke-width="0.825662"/>
<rect x="285.376" y="226.478" width="4.32931" height="22.8013" rx="2.16465" fill="white" stroke="#333333" stroke-width="0.825662"/>
<rect x="285.376" y="195.118" width="4.32931" height="22.8013" rx="2.16465" fill="white" stroke="#333333" stroke-width="0.825662"/>
<rect x="287.093" y="172.78" width="2.61098" height="11.2026" rx="1.30549" fill="white" stroke="#333333" stroke-width="0.825662"/>
<rect x="366.645" y="92.9799" width="2.1814" height="16.3734" rx="1.0907" transform="rotate(59.4496 366.645 92.9799)" fill="white" stroke="#333333" stroke-width="0.825662"/>
<circle cx="373.671" cy="90.9616" r="1.07395" fill="white" stroke="#333333" stroke-width="0.825662"/>
<path d="M289.903 119.314L301.716 126.402M294.628 114.374L305.797 121.247M283.244 138.431L294.628 145.304" stroke="#333333" stroke-width="0.825662" stroke-linecap="round"/>
<path d="M283.444 411.727L296.132 419.591" stroke="#333333" stroke-width="0.825662" stroke-linecap="round"/>
<ellipse cx="330.344" cy="98.5403" rx="4.18935" ry="2.04692" transform="rotate(-20.0485 330.344 98.5403)" fill="#333333"/>
<ellipse cx="378.303" cy="70.1449" rx="3.53844" ry="1.5776" transform="rotate(-20.0485 378.303 70.1449)" fill="#333333"/>
<path d="M328.174 79.3365H332.506V96.3458C332.506 97.7897 331.567 99.0662 330.19 99.4976L329.782 99.6251C328.985 99.8748 328.174 99.2789 328.174 98.4431V79.3365Z" fill="white" stroke="#333333" stroke-width="0.825662"/>
<path d="M376.257 55.0791H380.589V67.3329C380.589 68.7821 379.644 70.062 378.259 70.489L377.86 70.6119C377.064 70.8575 376.257 70.262 376.257 69.4284V55.0791Z" fill="white" stroke="#333333" stroke-width="0.825662"/>
<path d="M306.083 40.9823L306.582 93.5339L309.822 95.7968L393.583 47.5198V2.00866L389.345 0.5L306.083 40.9823ZM306.083 40.9823L318.049 48.777" stroke="#333333" stroke-width="0.825662" stroke-linecap="round"/>
<path d="M393.603 48.0322L309.961 95.5207V44.1279L393.603 2.8962V48.0322Z" fill="white" stroke="#333333" stroke-width="0.825662" stroke-linecap="round"/>
<rect x="-0.169814" y="0.598886" width="7.16369" height="26.4285" rx="3.58185" transform="matrix(-0.837702 0.546128 0.426363 0.904552 344.087 34.1554)" fill="#5FA4FB" stroke="#333333" stroke-width="0.825662"/>
<mask id="path-60-inside-1_8029_95404" fill="white">
<path fill-rule="evenodd" clip-rule="evenodd" d="M367.343 24.837C369.377 25.347 370.64 27.562 370.165 29.7843L365.291 52.5868C365.194 53.0421 365.031 53.4624 364.817 53.8385C364.5 54.8528 363.843 55.7779 362.92 56.3744C361.067 57.5704 358.844 56.9925 357.953 55.0837L349.317 36.5699C348.427 34.6611 349.206 32.1442 351.059 30.9482C352.911 29.7522 355.134 30.3301 356.025 32.2389L360.041 40.8475L362.8 27.9373C363.275 25.715 365.309 24.3269 367.343 24.837Z"/>
</mask>
<path fill-rule="evenodd" clip-rule="evenodd" d="M367.343 24.837C369.377 25.347 370.64 27.562 370.165 29.7843L365.291 52.5868C365.194 53.0421 365.031 53.4624 364.817 53.8385C364.5 54.8528 363.843 55.7779 362.92 56.3744C361.067 57.5704 358.844 56.9925 357.953 55.0837L349.317 36.5699C348.427 34.6611 349.206 32.1442 351.059 30.9482C352.911 29.7522 355.134 30.3301 356.025 32.2389L360.041 40.8475L362.8 27.9373C363.275 25.715 365.309 24.3269 367.343 24.837Z" fill="#5FA4FB"/>
<path d="M370.165 29.7843L369.38 29.6667L370.165 29.7843ZM367.343 24.837L367.591 24.0137L367.591 24.0137L367.343 24.837ZM365.291 52.5868L366.077 52.7044L366.077 52.7044L365.291 52.5868ZM364.817 53.8385L364.053 53.6384L364.083 53.5402L364.135 53.4503L364.817 53.8385ZM362.92 56.3744L362.541 55.6645L362.541 55.6645L362.92 56.3744ZM357.953 55.0837L357.224 55.5057L357.953 55.0837ZM349.317 36.5699L350.047 36.148L349.317 36.5699ZM356.025 32.2389L356.754 31.8169L356.025 32.2389ZM360.041 40.8475L360.826 40.9652L360.305 43.4007L359.311 41.2695L360.041 40.8475ZM362.8 27.9373L362.015 27.8197L362.015 27.8197L362.8 27.9373ZM369.38 29.6667C369.762 27.8777 368.731 26.0708 367.094 25.6602L367.591 24.0137C370.022 24.6232 371.518 27.2463 370.951 29.9019L369.38 29.6667ZM364.506 52.4692L369.38 29.6667L370.951 29.9019L366.077 52.7044L364.506 52.4692ZM364.135 53.4503C364.3 53.1602 364.429 52.8316 364.506 52.4692L366.077 52.7044C365.96 53.2526 365.762 53.7645 365.498 54.2266L364.135 53.4503ZM362.541 55.6645C363.271 55.1932 363.798 54.4572 364.053 53.6384L365.58 54.0386C365.203 55.2484 364.416 56.3626 363.298 57.0843L362.541 55.6645ZM358.683 54.6618C359.378 56.1512 361.096 56.5977 362.541 55.6645L363.298 57.0843C361.039 58.543 358.31 57.8338 357.224 55.5057L358.683 54.6618ZM350.047 36.148L358.683 54.6618L357.224 55.5057L348.588 36.9918L350.047 36.148ZM351.438 31.6581C349.964 32.6098 349.338 34.6291 350.047 36.148L348.588 36.9918C347.515 34.6931 348.449 31.6786 350.68 30.2383L351.438 31.6581ZM355.296 32.6608C354.601 31.1714 352.883 30.7249 351.438 31.6581L350.68 30.2383C352.939 28.7796 355.668 29.4888 356.754 31.8169L355.296 32.6608ZM359.311 41.2695L355.296 32.6608L356.754 31.8169L360.77 40.4256L359.311 41.2695ZM363.585 28.0549L360.826 40.9652L359.255 40.7299L362.015 27.8197L363.585 28.0549ZM367.094 25.6602C365.511 25.2631 363.955 26.3246 363.585 28.0549L362.015 27.8197C362.595 25.1054 365.107 23.3908 367.591 24.0137L367.094 25.6602Z" fill="#333333" mask="url(#path-60-inside-1_8029_95404)"/>
<path d="M345.166 145.388L314.372 163.621V229.665L345.166 211.837V145.388Z" fill="#F1F1F1" stroke="#333333" stroke-opacity="0.5" stroke-width="0.825662" stroke-linecap="round"/>
<path d="M345.166 211.635L339.696 208.798M339.696 208.798L314.372 223.79M339.696 208.798V148.629" stroke="#333333" stroke-opacity="0.5" stroke-width="0.825662" stroke-linecap="round"/>
<path d="M345.363 227.681L314.569 245.914V311.959L345.363 294.131V227.681Z" fill="#F1F1F1" stroke="#333333" stroke-opacity="0.5" stroke-width="0.825662" stroke-linecap="round"/>
<path d="M345.363 293.928L339.893 291.092M339.893 291.092L314.569 306.083M339.893 291.092V230.922" stroke="#333333" stroke-opacity="0.5" stroke-width="0.825662" stroke-linecap="round"/>
<path d="M340.814 313.783L314.372 329.44V386.151L340.814 370.843V313.783Z" fill="#F1F1F1" stroke="#333333" stroke-opacity="0.5" stroke-width="0.825662" stroke-linecap="round"/>
<path d="M340.814 370.669L336.117 368.233M336.117 368.233L314.372 381.107M336.117 368.233V316.567" stroke="#333333" stroke-opacity="0.5" stroke-width="0.825662" stroke-linecap="round"/>
<path d="M381.187 124.566L355.256 139.76V205.804L381.187 190.61V124.566Z" fill="white" stroke="#333333" stroke-opacity="0.5" stroke-width="0.825662" stroke-linecap="round"/>
<path opacity="0.5" d="M355.616 140.018L375.274 128.508V187.289L355.616 198.863V140.018Z" fill="#5EA3FB"/>
<path d="M381.188 190.408L375.718 187.571M375.718 187.571L355.054 199.727M375.718 187.571V128.213" stroke="#333333" stroke-opacity="0.5" stroke-width="0.825662" stroke-linecap="round"/>
<path d="M381.384 206.859L355.452 222.054V288.098L381.384 272.904V206.859Z" fill="#F1F1F1" stroke="#333333" stroke-opacity="0.5" stroke-width="0.825662" stroke-linecap="round"/>
<path d="M381.384 272.701L375.914 269.865M375.914 269.865L355.25 282.02M375.914 269.865V210.506" stroke="#333333" stroke-opacity="0.5" stroke-width="0.825662" stroke-linecap="round"/>
<path d="M413.053 105.007L389.553 118.783V184.827L413.053 171.051V105.007Z" fill="#F1F1F1" stroke="#333333" stroke-opacity="0.5" stroke-width="0.825662" stroke-linecap="round"/>
<path d="M412.851 170.849L407.381 168.012M407.381 168.012L389.553 178.75M407.381 168.012V108.653" stroke="#333333" stroke-opacity="0.5" stroke-width="0.825662" stroke-linecap="round"/>
<path d="M413.248 187.3L389.747 201.076V267.121L413.248 253.345V187.3Z" fill="#F1F1F1" stroke="#333333" stroke-opacity="0.5" stroke-width="0.825662" stroke-linecap="round"/>
<path d="M413.045 253.142L407.575 250.306M407.575 250.306L389.747 261.043M407.575 250.306V190.947" stroke="#333333" stroke-opacity="0.5" stroke-width="0.825662" stroke-linecap="round"/>
<path d="M413.167 272.543L392.987 284.373V341.084L413.167 329.255V272.543Z" fill="#F1F1F1" stroke="#333333" stroke-opacity="0.5" stroke-width="0.825662" stroke-linecap="round"/>
<path d="M412.993 329.081L408.296 326.646M408.296 326.646L392.987 335.865M408.296 326.646V275.675" stroke="#333333" stroke-opacity="0.5" stroke-width="0.825662" stroke-linecap="round"/>
<path d="M346.539 322.04L388.478 297.958L394.025 301.272V386.113L399.794 389.427V393.404L357.19 417.266L346.539 411.08V406.882V322.04Z" fill="#F1F1F1"/>
<path d="M394.025 301.272L388.478 297.958L346.539 322.04V406.882M394.025 301.272V386.113M394.025 301.272L351.865 325.575V409.975M394.025 386.113L399.794 389.427M394.025 386.113L388.478 389.427M399.794 389.427V393.404L357.19 417.266M399.794 389.427L357.19 413.068M357.19 417.266L346.539 411.08V406.882M357.19 417.266V413.068M351.865 409.975L346.539 406.882M351.865 409.975L357.19 413.068M351.865 409.975L357.19 406.882V404.451M388.478 389.427V310.11L386.037 311.506M388.478 389.427L386.037 387.881M386.037 387.881V311.506M386.037 387.881L357.19 404.451M386.037 311.506L357.19 328.006V404.451" stroke="#333333" stroke-width="0.825662" stroke-linecap="round"/>
<path d="M361.402 366.075V331.12L382.044 319.838V354.128L361.402 366.075Z" fill="white" stroke="#333333" stroke-opacity="0.5" stroke-width="0.825662" stroke-linecap="round"/>
<path opacity="0.5" d="M361.811 331.342L381.629 320.521L381.629 353.98L361.811 365.361L361.811 331.342Z" fill="#5EA3FB"/>
<path d="M384.286 361.534C383.972 362.107 383.521 362.517 383.063 362.726C382.604 362.934 382.164 362.934 381.821 362.746C381.477 362.558 381.24 362.188 381.168 361.689C381.096 361.191 381.198 360.59 381.511 360.017C381.825 359.443 382.276 359.034 382.734 358.825C383.193 358.617 383.633 358.617 383.976 358.805C384.32 358.993 384.557 359.363 384.629 359.861C384.701 360.36 384.599 360.961 384.286 361.534Z" fill="white" stroke="#333333" stroke-width="0.825662"/>
<path d="M366.768 165.026L391.95 179.475" stroke="#333333" stroke-width="1.59474" stroke-linecap="round" stroke-dasharray="3.19 2.39"/>
<path d="M419.772 195.721C419.934 194.705 419.953 192.504 418.733 191.835C418.391 191.543 416.605 190.755 412.2 189.938L402.939 188.122C401.878 187.931 399.856 187.938 398.262 188.93C397.494 188.253 396.186 186.096 397.097 182.886C397.124 182.655 397.607 182.197 399.322 182.207C401.465 182.218 405.085 181.884 407.434 180.465C409.313 179.33 410.506 178.594 410.868 178.367C411.149 178.111 411.419 177.719 411.319 177.373L411.182 175.651C411.118 175.352 410.459 174.723 408.334 174.6C406.209 174.478 399.512 174.482 396.429 174.5C394.287 174.503 389.501 174.86 387.498 176.261C385.494 177.661 384.904 178.414 384.859 178.615C384.813 179.273 384.839 180.724 385.317 181.27C385.33 181.672 385.684 182 386.643 182.122L389.634 182.477C389.295 183.553 389.033 186.603 390.705 190.192L392.813 194.904C393.115 195.61 393.87 197.019 394.467 197.008C393.98 198.939 393.597 200.808 393.38 202.021C392.732 204.186 392.271 208.933 395.613 210.601L407.929 215.276C409.327 215.666 412.524 215.968 414.122 214.052C414.492 213.609 414.882 212.944 415.279 212.11C415.39 211.897 415.494 211.67 415.589 211.427C417.241 207.629 418.948 201.171 419.772 195.721Z" fill="#5FA4FB"/>
<path d="M419.772 195.721C419.934 194.705 419.953 192.504 418.733 191.835C418.391 191.543 416.605 190.755 412.2 189.938L402.939 188.122C401.878 187.931 399.856 187.938 398.262 188.93M419.772 195.721C419.865 194.604 419.562 192.28 417.601 191.926C415.149 191.482 414.32 191.366 413.071 192.287C411.799 193.224 409.386 200.958 408.419 204.837C407.661 207.722 406.545 213.699 408.143 214.529C409.74 215.358 412.233 214.754 413.279 214.348C413.766 214.096 414.911 213.159 415.589 211.427M419.772 195.721C418.948 201.171 417.241 207.629 415.589 211.427M415.589 211.427C415.086 212.584 414.588 213.493 414.122 214.052C412.524 215.968 409.327 215.666 407.929 215.276L395.613 210.601C392.271 208.933 392.732 204.186 393.38 202.021C393.597 200.808 393.98 198.939 394.467 197.008M398.262 188.93C397.655 189.307 397.11 189.828 396.704 190.535C395.877 191.972 395.088 194.541 394.467 197.008M398.262 188.93C397.494 188.253 396.186 186.096 397.097 182.886C397.124 182.655 397.607 182.197 399.322 182.207C401.465 182.218 405.085 181.884 407.434 180.465C409.313 179.33 410.506 178.594 410.868 178.367C411.149 178.111 411.419 177.719 411.319 177.373M394.467 197.008C393.87 197.019 393.115 195.61 392.813 194.904L390.705 190.192C389.033 186.603 389.295 183.553 389.634 182.477L386.643 182.122C385.684 182 385.33 181.672 385.317 181.27M411.319 177.373C411.218 177.022 410.736 176.718 409.5 176.651C407.047 176.519 399.198 176.454 395.58 176.438C393.632 176.395 389.145 176.914 386.785 179.328C386.127 179.818 385.297 180.636 385.317 181.27M411.319 177.373L411.182 175.651C411.118 175.352 410.459 174.723 408.334 174.6C406.209 174.478 399.512 174.482 396.429 174.5C394.287 174.503 389.501 174.86 387.498 176.261C385.494 177.661 384.904 178.414 384.859 178.615C384.813 179.273 384.839 180.724 385.317 181.27M416.151 200.617C416.123 199.311 415.67 196.988 414.084 198.136C412.498 199.284 411.596 201.618 411.344 202.642C410.976 204.131 410.506 207.352 411.569 208.326C412.896 209.543 414.798 206.518 415.358 204.968C415.806 203.728 416.073 201.55 416.151 200.617Z" stroke="#333333" stroke-width="0.825662" stroke-linecap="round"/>
<ellipse cx="1.10259" cy="2.68486" rx="1.10259" ry="2.68486" transform="matrix(-0.96397 -0.266012 -0.266012 0.96397 415.039 200.884)" fill="#333333"/>
<g style="mix-blend-mode:multiply" filter="url(#filter3_f_8029_95404)">
<path d="M353.438 205.05V142.28L381.346 126.11V188.129L353.438 205.05Z" fill="#5FA4FB" fill-opacity="0.7"/>
</g>
<g style="mix-blend-mode:multiply" filter="url(#filter4_f_8029_95404)">
<path d="M361.41 366.517V331.69L382.142 319.688V355.029L361.41 366.517Z" fill="#5FA4FB" fill-opacity="0.7"/>
</g>
<path d="M372.548 340.066L461.719 398.276" stroke="#333333" stroke-width="1.59474" stroke-linecap="round" stroke-dasharray="3.19 2.39"/>
<path d="M469.68 396.435C470.323 402.308 466.875 407.37 462.146 407.888C457.417 408.405 452.956 404.209 452.313 398.336C451.67 392.462 455.118 387.401 459.847 386.883C464.576 386.365 469.037 390.561 469.68 396.435Z" fill="#5FA4FB" stroke="#333333" stroke-width="0.825662"/>
<path d="M476.306 387.214L483.26 392.541C486.042 394.672 485.757 398.757 485.268 400.533C485.053 402.02 483.456 405.97 478.787 409.879C474.118 413.788 469.939 412.264 468.434 411.013L461.046 404.317C458.155 400.67 458.143 395.904 458.498 393.977C458.688 392.258 460.28 388.261 465.132 386.03C469.985 383.8 474.603 385.89 476.306 387.214Z" fill="#5FA4FB" stroke="#333333" stroke-width="0.825662"/>
<path d="M483.693 393.692C485.104 394.865 485.673 396.874 485.358 399.263C485.043 401.646 483.851 404.341 481.836 406.766C479.821 409.191 477.389 410.857 475.104 411.602C472.813 412.35 470.734 412.158 469.322 410.985C467.911 409.813 467.342 407.803 467.658 405.414C467.972 403.031 469.165 400.336 471.18 397.911C473.195 395.486 475.626 393.821 477.911 393.075C480.202 392.328 482.282 392.519 483.693 393.692Z" fill="#5FA4FB" stroke="#333333" stroke-width="0.825662"/>
<path d="M478.567 400.645C478.832 400.84 478.995 401.233 478.944 401.816C478.894 402.39 478.636 403.076 478.161 403.722C477.686 404.368 477.108 404.819 476.575 405.038C476.034 405.26 475.61 405.221 475.345 405.026C475.08 404.832 474.917 404.438 474.968 403.856C475.018 403.282 475.276 402.595 475.751 401.949C476.226 401.303 476.804 400.853 477.337 400.634C477.878 400.412 478.302 400.451 478.567 400.645Z" fill="#333333" stroke="#333333" stroke-width="0.825662"/>
<path d="M82.5361 447.052V271.3L171.608 285.035L200.035 289.419L212.116 291.282L294.791 304.031V442.071L285.789 447.052L283.421 445.391L266.601 455.116V457.725L212.116 488.558L200.035 481.443L171.608 498.283L82.5361 447.052Z" fill="white"/>
<path d="M171.608 498.283L82.5361 447.052V271.3L171.608 285.035M171.608 498.283L200.035 481.443M171.608 498.283V285.035M200.035 481.443L212.116 488.558M200.035 481.443V289.419M212.116 488.558L266.601 457.725V455.116M212.116 488.558V291.282M285.789 447.052V386.57L283.421 387.976M285.789 447.052L294.791 442.071V304.031L212.116 291.282M285.789 447.052L283.421 445.391M171.608 285.035L200.035 289.419M200.035 289.419L212.116 291.282M283.421 445.391V387.976M283.421 445.391L266.601 455.116M283.421 387.976L266.601 397.955V455.116" stroke="#333333" stroke-width="0.825662"/>
<path d="M254.072 336.276V379.865L227.648 394.321V389.206V350.731L249.104 338.994L254.072 336.276Z" fill="white"/>
<path d="M254.072 379.865V336.276L249.104 338.994M254.072 379.865L227.648 394.321V389.206M254.072 379.865L249.104 377.419M249.104 377.419V338.994M249.104 377.419L227.648 389.206M249.104 338.994L227.648 350.731V389.206" stroke="#333333" stroke-opacity="0.5" stroke-width="0.825662"/>
<path d="M251.906 403.851V434.979L227.648 448.468V443.695V417.34L247.345 406.387L251.906 403.851Z" fill="#F1F1F1"/>
<path d="M251.906 434.979V403.851L247.345 406.387M251.906 434.979L227.648 448.468V443.695M251.906 434.979L247.345 432.696M247.345 432.696V406.387M247.345 432.696L227.648 443.695M247.345 406.387L227.648 417.34V443.695" stroke="#333333" stroke-opacity="0.5" stroke-width="0.825662"/>
<path d="M93.3635 394.754V438.738L116.755 451.933V445.189V407.949L99.7167 398.338L93.3635 394.754Z" fill="white"/>
<path d="M93.3635 438.738V394.754L99.7167 398.338M93.3635 438.738L116.755 451.933V445.189M93.3635 438.738L99.7167 435.513M99.7167 435.513V398.338M99.7167 435.513L116.755 445.189M99.7167 398.338L116.755 407.949V445.189" stroke="#333333" stroke-opacity="0.5" stroke-width="0.825662"/>
<path d="M93.3642 342.34V377.661L112.424 388.257V382.841V352.936L98.5409 345.218L93.3642 342.34Z" fill="#F1F1F1"/>
<path d="M93.3642 377.661V342.34L98.5409 345.218M93.3642 377.661L112.424 388.257V382.841M93.3642 377.661L98.5409 375.07M98.5409 375.07V345.218M98.5409 375.07L112.424 382.841M98.5409 345.218L112.424 352.936V382.841" stroke="#333333" stroke-opacity="0.5" stroke-width="0.825662"/>
<path d="M188.466 197.227L300.854 297.331V299.941L185.621 366.598L75.6035 265.07V262.224L188.466 197.227Z" fill="#F1F1F1"/>
<path d="M75.6035 262.224L185.621 363.277M75.6035 262.224L188.466 197.227L300.854 297.331M75.6035 262.224V265.07L185.621 366.598M185.621 363.277L300.854 297.331M185.621 363.277V366.598M300.854 297.331V299.941L185.621 366.598" stroke="#333333" stroke-width="0.825662"/>
<ellipse cx="280.713" cy="424.643" rx="1.08293" ry="1.29952" fill="white" stroke="#333333" stroke-width="0.825662"/>
<path d="M238.045 363.565L287.427 393.454" stroke="#333333" stroke-width="1.59474" stroke-linecap="round" stroke-dasharray="3.19 2.39"/>
<path d="M108.526 423.777L53.5133 456.265" stroke="#333333" stroke-width="1.59474" stroke-linecap="round" stroke-dasharray="3.19 2.39"/>
<path d="M205.124 244.585V222.681L215.85 216.72L227.649 223.572V247.097L215.85 254.406L205.124 244.585Z" fill="white"/>
<path d="M205.124 222.681V244.585L215.85 254.406M205.124 222.681L215.85 216.72L227.649 223.572M205.124 222.681L210.487 226.118M215.85 254.406L227.649 247.097V223.572M215.85 254.406V229.556M227.649 223.572L221.75 226.335M215.85 229.556L210.487 226.118M215.85 229.556L221.75 226.335M210.487 226.118L215.85 222.681L221.75 226.335" stroke="#333333" stroke-width="0.825662"/>
<path d="M321.993 375.797L311.591 389.459C310.107 391.58 305.65 395.907 299.688 396.238C298.215 396.32 297.183 396.089 296.48 395.665C295.117 394.976 292.33 392.771 292.081 389.459C291.856 386.46 291.957 385.009 292.541 383.611C292.764 383.079 293.056 382.554 293.427 381.955L304.294 366.585C305.312 365.171 308.134 362.383 311.281 362.549C312.971 362.411 316.973 362.683 319.457 364.878C321.941 367.072 323.01 370.38 323.235 371.76C323.255 372.174 323.184 373.251 322.736 374.244C322.582 374.719 322.34 375.236 321.993 375.797Z" fill="#5FA4FB"/>
<path d="M296.48 395.665C297.183 396.089 298.215 396.32 299.688 396.238C305.65 395.907 310.107 391.58 311.591 389.459L321.993 375.797C322.34 375.236 322.582 374.719 322.736 374.244M296.48 395.665C293.875 394.095 295.787 389.882 296.48 389.148L307.089 374.969C308.693 372.985 312.936 368.811 319.457 369.587C321.112 369.885 323.719 371.215 322.736 374.244M296.48 395.665C295.117 394.976 292.33 392.771 292.081 389.459C291.856 386.46 291.957 385.009 292.541 383.611C292.764 383.079 293.056 382.554 293.427 381.955L304.294 366.585C305.312 365.171 308.134 362.383 311.281 362.549C312.971 362.411 316.973 362.683 319.457 364.878C321.941 367.072 323.01 370.38 323.235 371.76C323.255 372.174 323.184 373.251 322.736 374.244" stroke="#333333" stroke-width="0.825662"/>
<path d="M296.481 395.613C297.184 396.036 298.216 396.267 299.69 396.186C299.69 397.945 297.568 405.035 291.151 404.776L286.183 405.449C284.631 405.535 280.988 404.403 278.835 399.187C276.682 393.971 278.731 388.734 280.025 386.767C280.439 385.887 281.94 384.002 284.631 383.497C287.322 382.993 290.375 383.287 291.565 383.497C291.932 383.497 292.263 383.52 292.543 383.559C291.959 384.957 291.858 386.408 292.083 389.406C292.331 392.718 295.119 394.924 296.481 395.613Z" fill="#5FA4FB"/>
<path d="M291.151 404.776C286.018 404.569 283.665 398.963 283.13 396.186C282.871 394.857 282.809 391.259 284.631 387.492C286.182 384.285 289.464 383.5 291.565 383.497M291.151 404.776C297.568 405.035 299.69 397.945 299.69 396.186C298.216 396.267 297.184 396.036 296.481 395.613C295.119 394.924 292.331 392.718 292.083 389.406C291.858 386.408 291.959 384.957 292.543 383.559C292.263 383.52 291.932 383.497 291.565 383.497M291.151 404.776L286.183 405.449C284.631 405.535 280.988 404.403 278.835 399.187C276.682 393.971 278.731 388.734 280.025 386.767C280.439 385.887 281.94 384.002 284.631 383.497C287.322 382.993 290.375 383.287 291.565 383.497" stroke="#333333" stroke-width="0.825662"/>
<path d="M283.13 396.186C282.871 394.857 282.809 391.259 284.631 387.492C286.182 384.285 289.464 383.5 291.565 383.497C290.375 383.287 287.322 382.993 284.631 383.497C281.94 384.002 280.439 385.887 280.025 386.767C278.731 388.734 276.682 393.971 278.835 399.187C280.988 404.403 284.631 405.535 286.183 405.449L291.151 404.776C286.018 404.569 283.665 398.963 283.13 396.186Z" fill="#5FA4FB" stroke="#333333" stroke-width="0.825662"/>
<path d="M320.381 372.964C320.814 373.812 320.646 374.953 319.863 376.166C319.087 377.369 317.747 378.567 316.017 379.451C314.287 380.334 312.531 380.717 311.101 380.641C309.659 380.563 308.636 380.031 308.203 379.182C307.77 378.334 307.938 377.193 308.721 375.98C309.497 374.777 310.837 373.579 312.567 372.695C314.297 371.812 316.053 371.429 317.483 371.506C318.925 371.583 319.948 372.116 320.381 372.964Z" fill="#5FA4FB" stroke="#333333" stroke-width="0.825662"/>
<path d="M299.673 396.178C305.634 395.846 310.092 391.52 311.575 389.398L312.12 388.682L297.426 387.803L296.464 389.088C295.772 389.821 293.859 394.035 296.464 395.605C297.167 396.028 298.199 396.26 299.673 396.178Z" fill="#5FA4FB" stroke="#333333" stroke-width="0.825662"/>
<path d="M316.661 374.964C316.733 375.093 316.742 375.351 316.493 375.738C316.255 376.109 315.831 376.507 315.267 376.823C314.702 377.138 314.141 377.291 313.701 377.3C313.24 377.309 313.025 377.166 312.953 377.038C312.881 376.909 312.873 376.651 313.121 376.264C313.359 375.893 313.783 375.495 314.348 375.179C314.912 374.864 315.474 374.711 315.914 374.702C316.374 374.693 316.589 374.835 316.661 374.964Z" fill="#333333" stroke="#333333" stroke-width="0.825662"/>
<path d="M183.199 495.032C183.811 492.275 182.178 490.437 181.285 489.863V486.225C179.753 486.225 178.477 487.948 178.03 488.81C176.193 488.886 174.84 489.161 174.393 489.288L170.182 486.225C164.823 480.672 162.334 481.055 159.271 478.949C156.209 476.843 153.72 471.482 153.72 467.27C153.72 463.058 150.466 460.569 149.318 461.143C148.399 461.603 148.935 462.611 149.318 463.058C149.701 463.122 150.543 463.785 150.849 465.93C151.155 468.074 151.487 469.376 151.615 469.759C154.218 476.345 153.337 480.034 152.572 481.055C152.061 482.46 151.232 485.842 151.998 488.14C152.955 491.012 153.529 494.266 153.72 495.99C153.873 497.368 154.55 498.989 154.869 499.627C155.571 501.925 157.434 506.329 159.271 505.563C161.109 504.797 160.165 503.457 159.463 502.882C158.506 501.67 156.783 499.015 157.549 498.096C158.314 497.177 158.761 495.16 158.889 494.266C162.564 497.33 165.78 498.479 166.928 498.67C165.856 500.661 164.695 503.84 164.248 505.18C164.057 506.137 164.057 508.09 165.588 508.243C167.502 508.435 166.928 507.094 167.502 504.414C167.962 502.27 171.395 500.712 173.054 500.202C174.011 502.691 178.03 509.583 179.753 511.69C181.476 513.796 182.242 513.987 183.199 513.413C184.156 512.838 183.773 512.072 180.902 508.626C178.605 505.869 178.03 501.478 178.03 499.627C181.667 500.968 184.539 497.713 183.773 497.138C183.16 496.679 183.135 495.543 183.199 495.032Z" fill="white" stroke="#333333" stroke-width="0.825662" stroke-linecap="round"/>
<path d="M176.963 491.456C176.542 491.252 175.599 490.844 175.195 490.844C174.69 490.844 175.068 492.313 174.942 493.292" stroke="#333333" stroke-width="0.825662" stroke-linecap="round"/>
<path d="M65.1301 460.789C67.7212 458.356 69.3397 454.9 69.3397 451.066C69.3397 443.703 63.3705 437.734 56.0072 437.734C48.6439 437.734 42.6748 443.703 42.6748 451.066C42.6748 454.869 44.267 458.3 46.8212 460.729C45.2349 463.472 42.372 470.205 43.0368 476.283C43.091 476.428 43.1881 476.591 43.3347 476.766C44.3855 478.015 47.9769 479.842 56.4899 479.842C66.1906 479.842 68.8973 477.188 69.038 475.861C69.0182 472.669 68.2049 465.252 65.1301 460.789Z" fill="#5FA4FB"/>
<path d="M65.1301 460.789C67.7212 458.356 69.3397 454.9 69.3397 451.066C69.3397 443.703 63.3705 437.734 56.0072 437.734C48.6439 437.734 42.6748 443.703 42.6748 451.066C42.6748 454.869 44.267 458.3 46.8212 460.729M65.1301 460.789C68.2049 465.252 69.0182 472.669 69.038 475.861C68.8973 477.188 66.1906 479.842 56.4899 479.842C47.9769 479.842 44.3855 478.015 43.3347 476.766C43.1881 476.591 43.091 476.428 43.0368 476.283C42.372 470.205 45.2349 463.472 46.8212 460.729M65.1301 460.789C63.5147 461.583 64.2118 461.985 55.9469 462.227C49.335 462.42 47.1081 461.309 46.8212 460.729" stroke="#333333" stroke-width="0.825662"/>
<path d="M47.0197 443.042C47.643 441.796 49.6982 439.169 52.9318 438.639C56.1653 438.108 57.6172 439.503 57.939 440.267C58.12 440.589 58.3733 441.595 57.939 443.042C57.6263 444.954 57.2735 446.284 57.0767 448.291C56.9318 449.768 56.8714 451.612 56.9737 454.324C57.1346 455.51 57.1306 458.197 55.8275 459.452C54.1987 461.02 50.8203 462.227 47.442 458.486C44.0636 454.746 45.7528 445.456 47.0197 443.042Z" fill="#5FA4FB"/>
<path d="M56.9737 454.324C57.1346 455.51 57.1306 458.197 55.8275 459.452C54.1987 461.02 50.8203 462.227 47.442 458.486C44.0636 454.746 45.7528 445.456 47.0197 443.042C47.643 441.796 49.6982 439.169 52.9318 438.639C56.1653 438.108 57.6172 439.503 57.939 440.267C58.12 440.589 58.3733 441.595 57.939 443.042C57.6263 444.954 57.2735 446.284 57.0767 448.291M56.9737 454.324C56.8714 451.612 56.9318 449.768 57.0767 448.291M56.9737 454.324C56.9808 454.51 56.9831 454.691 56.9809 454.867C55.5402 457.099 54.259 457.883 51.303 457.943C48.9381 457.992 47.0197 455.55 46.3561 454.324C46.0725 452.383 46.1397 450.393 46.3561 448.636C46.8186 447.314 48.552 444.72 51.7856 444.913C55.0191 445.106 56.6603 447.245 57.0767 448.291" stroke="#333333" stroke-width="0.825662" stroke-linecap="round"/>
<path d="M52.7598 451.488C52.7598 452.482 52.0044 453.247 51.1215 453.247C50.2386 453.247 49.4831 452.482 49.4831 451.488C49.4831 450.494 50.2386 449.729 51.1215 449.729C52.0044 449.729 52.7598 450.494 52.7598 451.488Z" fill="#333333" stroke="#333333" stroke-width="0.825662"/>
<g style="mix-blend-mode:multiply" filter="url(#filter5_f_8029_95404)">
<path d="M225.858 397.568V350.351L254.033 334.224V382.024L225.858 397.568Z" fill="#5FA4FB" fill-opacity="0.7"/>
</g>
<g style="mix-blend-mode:multiply">
<path d="M228.052 388.502L228.052 350.942L248.722 339.639L248.578 377.253L228.052 388.502Z" fill="#5FA4FB" fill-opacity="0.7"/>
</g>
<g style="mix-blend-mode:multiply" filter="url(#filter6_f_8029_95404)">
<path d="M117.415 452.234V409.441L91.8992 394.824V438.146L117.415 452.234Z" fill="#5FA4FB" fill-opacity="0.7"/>
</g>
<g style="mix-blend-mode:multiply">
<path d="M116.438 444.671V408.259L100.197 398.976L100.197 435.244L116.438 444.671Z" fill="#5FA4FB" fill-opacity="0.7"/>
</g>
<defs>
<filter id="filter0_f_8029_95404" x="503.609" y="60.7265" width="83.9906" height="119.161" filterUnits="userSpaceOnUse" color-interpolation-filters="sRGB">
<feFlood flood-opacity="0" result="BackgroundImageFix"/>
<feBlend mode="normal" in="SourceGraphic" in2="BackgroundImageFix" result="shape"/>
<feGaussianBlur stdDeviation="13.954" result="effect1_foregroundBlur_8029_95404"/>
</filter>
<filter id="filter1_f_8029_95404" x="437.162" y="161.195" width="83.9906" height="119.161" filterUnits="userSpaceOnUse" color-interpolation-filters="sRGB">
<feFlood flood-opacity="0" result="BackgroundImageFix"/>
<feBlend mode="normal" in="SourceGraphic" in2="BackgroundImageFix" result="shape"/>
<feGaussianBlur stdDeviation="13.954" result="effect1_foregroundBlur_8029_95404"/>
</filter>
<filter id="filter2_f_8029_95404" x="332.241" y="289.854" width="83.9906" height="119.161" filterUnits="userSpaceOnUse" color-interpolation-filters="sRGB">
<feFlood flood-opacity="0" result="BackgroundImageFix"/>
<feBlend mode="normal" in="SourceGraphic" in2="BackgroundImageFix" result="shape"/>
<feGaussianBlur stdDeviation="13.954" result="effect1_foregroundBlur_8029_95404"/>
</filter>
<filter id="filter3_f_8029_95404" x="325.531" y="98.2026" width="83.724" height="134.755" filterUnits="userSpaceOnUse" color-interpolation-filters="sRGB">
<feFlood flood-opacity="0" result="BackgroundImageFix"/>
<feBlend mode="normal" in="SourceGraphic" in2="BackgroundImageFix" result="shape"/>
<feGaussianBlur stdDeviation="13.954" result="effect1_foregroundBlur_8029_95404"/>
</filter>
<filter id="filter4_f_8029_95404" x="333.502" y="291.78" width="76.5472" height="102.645" filterUnits="userSpaceOnUse" color-interpolation-filters="sRGB">
<feFlood flood-opacity="0" result="BackgroundImageFix"/>
<feBlend mode="normal" in="SourceGraphic" in2="BackgroundImageFix" result="shape"/>
<feGaussianBlur stdDeviation="13.954" result="effect1_foregroundBlur_8029_95404"/>
</filter>
<filter id="filter5_f_8029_95404" x="197.95" y="306.316" width="83.9906" height="119.161" filterUnits="userSpaceOnUse" color-interpolation-filters="sRGB">
<feFlood flood-opacity="0" result="BackgroundImageFix"/>
<feBlend mode="normal" in="SourceGraphic" in2="BackgroundImageFix" result="shape"/>
<feGaussianBlur stdDeviation="13.954" result="effect1_foregroundBlur_8029_95404"/>
</filter>
<filter id="filter6_f_8029_95404" x="63.9915" y="366.916" width="81.3314" height="113.226" filterUnits="userSpaceOnUse" color-interpolation-filters="sRGB">
<feFlood flood-opacity="0" result="BackgroundImageFix"/>
<feBlend mode="normal" in="SourceGraphic" in2="BackgroundImageFix" result="shape"/>
<feGaussianBlur stdDeviation="13.954" result="effect1_foregroundBlur_8029_95404"/>
</filter>
</defs>
</svg>
