<svg width="28" height="28" viewBox="0 0 28 28" fill="none" xmlns="http://www.w3.org/2000/svg">
<path d="M14.0002 2.33337C7.57183 2.33337 2.3335 7.57171 2.3335 14C2.3335 20.4284 7.57183 25.6667 14.0002 25.6667C20.4285 25.6667 25.6668 20.4284 25.6668 14C25.6668 7.57171 20.4285 2.33337 14.0002 2.33337ZM19.5768 11.3167L12.9618 17.9317C12.7985 18.095 12.5768 18.1884 12.3435 18.1884C12.1102 18.1884 11.8885 18.095 11.7252 17.9317L8.4235 14.63C8.08516 14.2917 8.08516 13.7317 8.4235 13.3934C8.76183 13.055 9.32183 13.055 9.66016 13.3934L12.3435 16.0767L18.3402 10.08C18.6785 9.74171 19.2385 9.74171 19.5768 10.08C19.9152 10.4184 19.9152 10.9667 19.5768 11.3167Z" fill="#388EFA"/>
</svg>
