<svg width="24" height="25" viewBox="0 0 24 25" fill="none" xmlns="http://www.w3.org/2000/svg">
<path d="M9 22.5H15C20 22.5 22 20.5 22 15.5V9.5C22 4.5 20 2.5 15 2.5H9C4 2.5 2 4.5 2 9.5V15.5C2 20.5 4 22.5 9 22.5Z" stroke="#4389E1" stroke-width="1.5" stroke-linecap="round" stroke-linejoin="round"/>
<path d="M10 17.5H14C15.65 17.5 17 16.15 17 14.5V10.5C17 8.85 15.65 7.5 14 7.5H10C8.35 7.5 7 8.85 7 10.5V14.5C7 16.15 8.35 17.5 10 17.5Z" stroke="#4389E1" stroke-width="1.5" stroke-linecap="round" stroke-linejoin="round"/>
<path d="M12 7.5V17.5" stroke="#4389E1" stroke-width="1.5" stroke-linecap="round" stroke-linejoin="round"/>
<path d="M7 12.5H17" stroke="#4389E1" stroke-width="1.5" stroke-linecap="round" stroke-linejoin="round"/>
</svg>
